<?xml version="1.0" encoding="utf-8"?>
<!-- Generator: Adobe Illustrator 22.1.0, SVG Export Plug-In . SVG Version: 6.00 Build 0)  -->
<svg version="1.1" id="Layer_1" xmlns="http://www.w3.org/2000/svg" xmlns:xlink="http://www.w3.org/1999/xlink" x="0px" y="0px"
	 viewBox="0 0 300 300" style="enable-background:new 0 0 300 300;" xml:space="preserve">
<style type="text/css">
	.st0{fill:#FFFFFF;}
	.st1{fill:#0E0F3D;}
</style>
<g>
	<path class="st0" d="M131.8,260.5c-0.1,0-0.2,0-0.4-0.1l-89.7-91c-0.1-0.1-0.1-0.3-0.1-0.4c0-0.1,0-0.2,0.1-0.4
		c0.1-0.1,0.3-0.1,0.4-0.1c0.1,0,0.2,0,0.4,0.1l89.7,91c0.2,0.2,0.2,0.5,0,0.7C132.1,260.5,131.9,260.5,131.8,260.5z"/>
	<path class="st1" d="M42.1,167.5c-0.4,0-0.8,0.1-1.1,0.4c-0.6,0.6-0.6,1.5,0,2.1l89.7,91c0.3,0.3,0.7,0.4,1.1,0.4
		c0.4,0,0.8-0.1,1.1-0.4c0.6-0.6,0.6-1.5,0-2.1l-89.7-91C42.9,167.7,42.5,167.5,42.1,167.5L42.1,167.5z"/>
</g>
<g>
	<path class="st0" d="M133.6,261.1c-0.1,0-0.2,0-0.2-0.1c-0.2-0.1-0.3-0.4-0.2-0.7L259.1,42.2c0.1-0.2,0.3-0.2,0.4-0.2
		c0.1,0,0.2,0,0.2,0.1c0.2,0.1,0.2,0.2,0.2,0.3s0,0.2,0,0.4L134,260.9C133.9,261.1,133.7,261.1,133.6,261.1z"/>
	<path class="st1" d="M259.5,41c-0.5,0-1,0.3-1.3,0.7L132.3,259.9c-0.4,0.7-0.2,1.6,0.5,2c0.2,0.1,0.5,0.2,0.7,0.2
		c0.5,0,1-0.3,1.3-0.7L260.8,43.2c0.4-0.7,0.2-1.6-0.5-2C260.1,41,259.8,41,259.5,41L259.5,41z"/>
</g>
</svg>
