<?xml version="1.0" encoding="utf-8"?>
<!-- Generator: Adobe Illustrator 22.1.0, SVG Export Plug-In . SVG Version: 6.00 Build 0)  -->
<svg version="1.1" id="Layer_1" xmlns="http://www.w3.org/2000/svg" xmlns:xlink="http://www.w3.org/1999/xlink" x="0px" y="0px"
	 viewBox="0 0 300 300" style="enable-background:new 0 0 300 300;" xml:space="preserve">
<style type="text/css">
	.st0{fill:#FFFFFF;}
	.st1{fill:#0E0F3D;}
</style>
<g>
	<rect x="65.5" y="55.5" class="st0" width="170" height="202"/>
	<path class="st1" d="M231,60v193H70V60H231 M240,51H61v211h179V51L240,51z"/>
</g>
<g>
	<rect x="127" y="46" class="st0" width="47" height="10"/>
	<path class="st1" d="M173,47v8h-45v-8H173 M175,45h-49v12h49V45L175,45z"/>
</g>
<g>
	<path class="st0" d="M84,90c-1.1,0-2-0.9-2-2s0.9-2,2-2h108c1.1,0,2,0.9,2,2s-0.9,2-2,2H84z"/>
	<path class="st1" d="M192,84H84c-2.2,0-4,1.8-4,4s1.8,4,4,4h108c2.2,0,4-1.8,4-4S194.2,84,192,84L192,84z"/>
</g>
<g>
	<path class="st0" d="M84,106c-1.1,0-2-0.9-2-2s0.9-2,2-2h64c1.1,0,2,0.9,2,2s-0.9,2-2,2H84z"/>
	<path class="st1" d="M148,100H84c-2.2,0-4,1.8-4,4s1.8,4,4,4h64c2.2,0,4-1.8,4-4S150.2,100,148,100L148,100z"/>
</g>
<g>
	<path class="st0" d="M82,142c-1.1,0-2-0.9-2-2s0.9-2,2-2h108c1.1,0,2,0.9,2,2s-0.9,2-2,2H82z"/>
	<path class="st1" d="M190,136H82c-2.2,0-4,1.8-4,4s1.8,4,4,4h108c2.2,0,4-1.8,4-4S192.2,136,190,136L190,136z"/>
</g>
<g>
	<path class="st0" d="M82,159c-1.1,0-2-0.9-2-2s0.9-2,2-2h64c1.1,0,2,0.9,2,2s-0.9,2-2,2H82z"/>
	<path class="st1" d="M146,153H82c-2.2,0-4,1.8-4,4s1.8,4,4,4h64c2.2,0,4-1.8,4-4S148.2,153,146,153L146,153z"/>
</g>
<g>
	<path class="st0" d="M84,195c-1.1,0-2-0.9-2-2s0.9-2,2-2h108c1.1,0,2,0.9,2,2s-0.9,2-2,2H84z"/>
	<path class="st1" d="M192,189H84c-2.2,0-4,1.8-4,4s1.8,4,4,4h108c2.2,0,4-1.8,4-4S194.2,189,192,189L192,189z"/>
</g>
<g>
	<path class="st0" d="M84,211c-1.1,0-2-0.9-2-2s0.9-2,2-2h64c1.1,0,2,0.9,2,2s-0.9,2-2,2H84z"/>
	<path class="st1" d="M148,205H84c-2.2,0-4,1.8-4,4s1.8,4,4,4h64c2.2,0,4-1.8,4-4S150.2,205,148,205L148,205z"/>
</g>
</svg>
