<?xml version="1.0" encoding="utf-8"?>
<!-- Generator: Adobe Illustrator 22.1.0, SVG Export Plug-In . SVG Version: 6.00 Build 0)  -->
<svg version="1.1" id="Layer_1" xmlns="http://www.w3.org/2000/svg" xmlns:xlink="http://www.w3.org/1999/xlink" x="0px" y="0px"
	 viewBox="0 0 300 300" style="enable-background:new 0 0 300 300;" xml:space="preserve">
<style type="text/css">
	.st0{fill:#0E0F3D;}
</style>
<g>
	<path class="st0" d="M207,169H93c-2.7,0-5-2.2-5-5l0,0c0-2.8,2.2-5,5-5h114c2.8,0,5,2.2,5,5l0,0C212,166.8,209.8,169,207,169z"/>
</g>
<g>
	<circle class="st0" cx="72.5" cy="112.5" r="12.4"/>
	<path d="M72.5,100.2c6.8,0,12.2,5.5,12.2,12.2s-5.5,12.2-12.2,12.2s-12.2-5.5-12.2-12.2S65.7,100.2,72.5,100.2 M72.5,100
		c-6.9,0-12.5,5.6-12.5,12.5S65.6,125,72.5,125S85,119.4,85,112.5S79.4,100,72.5,100L72.5,100z"/>
</g>
<g>
	<circle class="st0" cx="227.5" cy="112.5" r="12.4"/>
	<path d="M227.5,100.2c6.8,0,12.2,5.5,12.2,12.2s-5.5,12.2-12.2,12.2s-12.2-5.5-12.2-12.2S220.7,100.2,227.5,100.2 M227.5,100
		c-6.9,0-12.5,5.6-12.5,12.5s5.6,12.5,12.5,12.5s12.5-5.6,12.5-12.5S234.4,100,227.5,100L227.5,100z"/>
</g>
<g>
	<path class="st0" d="M72.5,185.9c-5.2,0-9.4-4.2-9.4-9.4v-36c0-5.2,4.2-9.4,9.4-9.4s9.4,4.2,9.4,9.4v36
		C81.9,181.7,77.7,185.9,72.5,185.9z"/>
	<path d="M72.5,131.2c5.1,0,9.2,4.1,9.2,9.2v36c0,5.1-4.1,9.2-9.3,9.2s-9.2-4.1-9.2-9.2v-36C63.2,135.4,67.4,131.2,72.5,131.2
		 M72.5,131L72.5,131c-5.2,0-9.5,4.3-9.5,9.5v36c0,5.2,4.3,9.5,9.5,9.5h0c5.2,0,9.5-4.3,9.5-9.5v-36C82,135.3,77.7,131,72.5,131
		L72.5,131z"/>
</g>
<g>
	<path class="st0" d="M228.5,185.9c-5.2,0-9.4-4.2-9.4-9.4v-36c0-5.2,4.2-9.4,9.4-9.4s9.4,4.2,9.4,9.4v36
		C237.9,181.7,233.7,185.9,228.5,185.9z"/>
	<path d="M228.5,131.2c5.1,0,9.2,4.1,9.2,9.2v36c0,5.1-4.1,9.2-9.3,9.2c-5.1,0-9.2-4.1-9.2-9.2v-36
		C219.2,135.4,223.4,131.2,228.5,131.2 M228.5,131L228.5,131c-5.2,0-9.5,4.3-9.5,9.5v36c0,5.2,4.3,9.5,9.5,9.5h0
		c5.2,0,9.5-4.3,9.5-9.5v-36C238,135.3,233.7,131,228.5,131L228.5,131z"/>
</g>
<g>
	<path class="st0" d="M113,186H71c-2.7,0-5-2.2-5-5v-2c0-2.8,2.2-5,5-5h42c2.7,0,5,2.2,5,5v2C118,183.8,115.8,186,113,186z"/>
</g>
<g>
	<path class="st0" d="M233,186h-42c-2.8,0-5-2.2-5-5v-2c0-2.8,2.2-5,5-5h42c2.8,0,5,2.2,5,5v2C238,183.8,235.8,186,233,186z"/>
</g>
<g>
	<path class="st0" d="M106,215v-36c0-2.8,2.2-5,5-5h2c2.7,0,5,2.2,5,5v36c0,2.8-2.2,5-5,5h-2C108.2,220,106,217.8,106,215z"/>
</g>
<g>
	<path class="st0" d="M186,215v-36c0-2.8,2.2-5,5-5h2c2.8,0,5,2.2,5,5v36c0,2.8-2.2,5-5,5h-2C188.2,220,186,217.8,186,215z"/>
</g>
<g>
	<path class="st0" d="M97.5,95.9c-5.2,0-9.4-4.2-9.4-9.4s4.2-9.4,9.4-9.4h29c5.2,0,9.4,4.2,9.4,9.4s-4.2,9.4-9.4,9.4H97.5z"/>
	<path d="M126.5,77.2c5.1,0,9.2,4.1,9.2,9.3s-4.1,9.2-9.2,9.2h-29c-5.1,0-9.2-4.1-9.2-9.3s4.1-9.2,9.2-9.2H126.5 M126.5,77h-29
		c-5.2,0-9.5,4.3-9.5,9.5v0c0,5.2,4.3,9.5,9.5,9.5h29c5.2,0,9.5-4.3,9.5-9.5v0C136,81.3,131.7,77,126.5,77L126.5,77z"/>
</g>
<g>
	<path class="st0" d="M167.5,113.9c-5.2,0-9.4-4.2-9.4-9.4c0-5.2,4.2-9.4,9.4-9.4h29c5.2,0,9.4,4.2,9.4,9.4c0,5.2-4.2,9.4-9.4,9.4
		H167.5z"/>
	<path d="M196.5,95.2c5.1,0,9.2,4.1,9.2,9.3c0,5.1-4.1,9.2-9.2,9.2h-29c-5.1,0-9.2-4.1-9.2-9.3c0-5.1,4.1-9.2,9.2-9.2H196.5
		 M196.5,95h-29c-5.2,0-9.5,4.3-9.5,9.5v0c0,5.2,4.3,9.5,9.5,9.5h29c5.2,0,9.5-4.3,9.5-9.5v0C206,99.3,201.7,95,196.5,95L196.5,95z"
		/>
</g>
<g>
	<polygon class="st0" points="86.8,100.3 95.4,90.1 98.7,94.4 	"/>
</g>
<g>
	<polygon class="st0" points="207.8,117.1 196.7,109.8 200.5,106 	"/>
</g>
</svg>
