<?xml version="1.0" encoding="utf-8"?>
<!-- Generator: Adobe Illustrator 22.1.0, SVG Export Plug-In . SVG Version: 6.00 Build 0)  -->
<svg version="1.1" id="Layer_1" xmlns="http://www.w3.org/2000/svg" xmlns:xlink="http://www.w3.org/1999/xlink" x="0px" y="0px"
	 viewBox="0 0 300 300" style="enable-background:new 0 0 300 300;" xml:space="preserve">
<style type="text/css">
	.st0{fill:#FFFFFF;}
	.st1{fill:#0E0F3D;}
</style>
<g>
	<path class="st0" d="M42.5,260.8c-0.1,0-0.2,0-0.3-0.1c-0.1-0.1-0.1-0.3-0.1-0.4s0-0.2,0.1-0.4L256.7,39.8c0.1-0.1,0.3-0.1,0.4-0.1
		c0.1,0,0.2,0,0.3,0.1c0.1,0.1,0.1,0.3,0.1,0.4s0,0.2-0.1,0.4L42.8,260.7C42.7,260.8,42.5,260.8,42.5,260.8z"/>
	<path class="st1" d="M257.1,38.7c-0.4,0-0.8,0.2-1.1,0.5L41.4,259.3c-0.6,0.6-0.6,1.5,0,2.1c0.3,0.3,0.7,0.4,1,0.4
		c0.4,0,0.8-0.2,1.1-0.5L258.1,41.2c0.6-0.6,0.6-1.5,0-2.1C257.8,38.8,257.4,38.7,257.1,38.7L257.1,38.7z"/>
</g>
<g>
	<path class="st0" d="M260.4,260c-0.1,0-0.2,0-0.4-0.1L42.3,38.9c-0.1-0.1-0.1-0.3-0.1-0.4s0-0.2,0.1-0.4c0.1-0.1,0.3-0.1,0.4-0.1
		c0.1,0,0.2,0,0.4,0.1l217.8,221c0.2,0.2,0.2,0.5,0,0.7C260.6,260,260.5,260,260.4,260z"/>
	<path class="st1" d="M42.6,37c-0.4,0-0.8,0.1-1.1,0.4C41,38,41,39,41.5,39.6l217.8,221c0.3,0.3,0.7,0.4,1.1,0.4
		c0.4,0,0.8-0.1,1.1-0.4c0.6-0.6,0.6-1.5,0-2.1L43.7,37.5C43.4,37.2,43,37,42.6,37L42.6,37z"/>
</g>
</svg>
