<?xml version="1.0" encoding="utf-8"?>
<!-- Generator: Adobe Illustrator 22.1.0, SVG Export Plug-In . SVG Version: 6.00 Build 0)  -->
<svg version="1.1" id="Layer_1" xmlns="http://www.w3.org/2000/svg" xmlns:xlink="http://www.w3.org/1999/xlink" x="0px" y="0px"
	 viewBox="0 0 300 300" style="enable-background:new 0 0 300 300;" xml:space="preserve">
<style type="text/css">
	.st0{fill:#FFFFFF;}
	.st1{fill:#0E0F3D;}
	.st2{font-family:'MyriadPro-Regular';}
	.st3{font-size:230px;}
	.st4{fill:none;}
</style>
<g>
	<circle class="st0" cx="150" cy="150" r="107.5"/>
	<path class="st1" d="M150,44.5c58.2,0,105.5,47.3,105.5,105.5S208.2,255.5,150,255.5S44.5,208.2,44.5,150S91.8,44.5,150,44.5
		 M150,40.5c-60.5,0-109.5,49-109.5,109.5s49,109.5,109.5,109.5s109.5-49,109.5-109.5S210.5,40.5,150,40.5L150,40.5z"/>
</g>
<text transform="matrix(1 0 0 1 92.0168 228.2771)" class="st1 st2 st3">S</text>
<polygon class="st4" points="111.1,161.9 179.7,161.9 179.7,161.9 111.1,161.9 "/>
<g>
	<rect x="142.5" y="51.5" class="st1" width="10" height="195"/>
	<path class="st1" d="M152,52v194h-9V52H152 M153,51h-11v196h11V51L153,51z"/>
</g>
</svg>
