<?xml version="1.0" encoding="utf-8"?>
<!-- Generator: Adobe Illustrator 22.1.0, SVG Export Plug-In . SVG Version: 6.00 Build 0)  -->
<svg version="1.1" id="Layer_1" xmlns="http://www.w3.org/2000/svg" xmlns:xlink="http://www.w3.org/1999/xlink" x="0px" y="0px"
	 viewBox="0 0 300 300" style="enable-background:new 0 0 300 300;" xml:space="preserve">
<style type="text/css">
	.st0{fill:#0E0F3D;}
	.st1{fill:#FFFFFF;}
</style>
<g>
	<path class="st0" d="M198.5,262h-97c-3,0-5.5-2.5-5.5-5.5v-1c0-3,2.5-5.5,5.5-5.5h97c3,0,5.5,2.5,5.5,5.5v1
		C204,259.5,201.5,262,198.5,262z"/>
</g>
<g>
	<path class="st0" d="M147.5,247.8V103.2c0-1.5,1.2-2.8,2.8-2.8l0,0c1.5,0,2.8,1.2,2.8,2.8v144.5c0,1.5-1.2,2.8-2.8,2.8l0,0
		C148.7,250.5,147.5,249.3,147.5,247.8z"/>
</g>
<g>
	<path class="st0" d="M177.5,256h-54c-3,0-5.5-2.5-5.5-5.5v-1c0-3,2.5-5.5,5.5-5.5h54c3,0,5.5,2.5,5.5,5.5v1
		C183,253.5,180.5,256,177.5,256z"/>
</g>
<path class="st0" d="M201,112H99c-0.3,0-0.5-0.2-0.5-0.5v-1c0-0.3,0.2-0.5,0.5-0.5h102c0.3,0,0.5,0.2,0.5,0.5v1
	C201.5,111.8,201.3,112,201,112z"/>
<path class="st0" d="M100,111L100,111c-0.5-0.3-1.1-0.1-1.4,0.4l-29,50.2c-0.3,0.5-0.1,1.1,0.4,1.4h0c0.5,0.3,1.1,0.1,1.4-0.4
	l29-50.2C100.6,111.9,100.5,111.3,100,111z"/>
<path class="st0" d="M129,163L129,163c0.5-0.3,0.6-0.9,0.4-1.4l-29-50.2c-0.3-0.5-0.9-0.6-1.4-0.4l0,0c-0.5,0.3-0.6,0.9-0.4,1.4
	l29,50.2C127.9,163.1,128.5,163.3,129,163z"/>
<g>
	<ellipse class="st1" cx="99.5" cy="164" rx="30.4" ry="10.9"/>
	<path class="st0" d="M99.5,153.2c16.7,0,30.2,4.8,30.2,10.8s-13.6,10.8-30.2,10.8s-30.2-4.8-30.2-10.8S82.8,153.2,99.5,153.2
		 M99.5,153c-16.8,0-30.5,4.9-30.5,11s13.7,11,30.5,11s30.5-4.9,30.5-11S116.3,153,99.5,153L99.5,153z"/>
</g>
<path class="st0" d="M230,163L230,163c0.5-0.3,0.6-0.9,0.4-1.4l-29-50.2c-0.3-0.5-0.9-0.6-1.4-0.4l0,0c-0.5,0.3-0.6,0.9-0.4,1.4
	l29,50.2C228.9,163.1,229.5,163.3,230,163z"/>
<path class="st0" d="M201,111L201,111c-0.5-0.3-1.1-0.1-1.4,0.4l-29,50.2c-0.3,0.5-0.1,1.1,0.4,1.4l0,0c0.5,0.3,1.1,0.1,1.4-0.4
	l29-50.2C201.6,111.9,201.5,111.3,201,111z"/>
<g>
	<ellipse class="st1" cx="200.5" cy="164" rx="30.4" ry="10.9"/>
	<path class="st0" d="M200.5,153.2c16.7,0,30.2,4.8,30.2,10.8s-13.6,10.8-30.2,10.8s-30.2-4.8-30.2-10.8S183.8,153.2,200.5,153.2
		 M200.5,153c-16.8,0-30.5,4.9-30.5,11s13.7,11,30.5,11s30.5-4.9,30.5-11S217.3,153,200.5,153L200.5,153z"/>
</g>
</svg>
