<?xml version="1.0" encoding="utf-8"?>
<!-- Generator: Adobe Illustrator 22.1.0, SVG Export Plug-In . SVG Version: 6.00 Build 0)  -->
<svg version="1.1" id="Layer_1" xmlns="http://www.w3.org/2000/svg" xmlns:xlink="http://www.w3.org/1999/xlink" x="0px" y="0px"
	 viewBox="0 0 300 300" style="enable-background:new 0 0 300 300;" xml:space="preserve">
<style type="text/css">
	.st0{fill:#0E0F3D;}
	.st1{fill:#FFFFFF;stroke:#030F3D;stroke-miterlimit:10;}
	.st2{fill:#FFFFFF;}
</style>
<path class="st0" d="M158.5,262h-17c-6.6,0-12-5.4-12-12V50c0-6.6,5.4-12,12-12h17c6.6,0,12,5.4,12,12v200
	C170.5,256.6,165.1,262,158.5,262z"/>
<path class="st0" d="M41,158.5v-17c0-6.6,5.4-12,12-12h195c6.6,0,12,5.4,12,12v17c0,6.6-5.4,12-12,12H53
	C46.4,170.5,41,165.1,41,158.5z"/>
<path class="st0" d="M158.5,262h-17c-6.6,0-12-5.4-12-12V50c0-6.6,5.4-12,12-12h17c6.6,0,12,5.4,12,12v200
	C170.5,256.6,165.1,262,158.5,262z"/>
<polygon class="st1" points="170.7,199.1 147.3,178 168,155.1 191.3,176.3 "/>
<g>
	<circle class="st2" cx="158.5" cy="166.5" r="15.5"/>
</g>
<g>
	<circle class="st2" cx="182.5" cy="165.5" r="15.5"/>
</g>
</svg>
